# Blender v2.77 (sub 0) OBJ File: ''
# www.blender.org
mtllib Fleche.mtl
o Cube
v 1.997994 -0.317259 -0.317259
v 1.997994 -0.317259 0.317259
v -0.053921 -0.210870 0.151420
v -0.053921 -0.210870 -0.483098
v 1.997994 -0.143354 -0.317259
v 1.997994 -0.143354 0.317259
v -0.053922 -0.036964 0.151420
v -0.053921 -0.036964 -0.483098
v 1.997994 -0.317259 -0.710790
v 1.997994 -0.317259 0.710789
v 1.997994 -0.143354 -0.710789
v 1.997994 -0.143354 0.710790
v 3.236601 -0.317259 0.000000
v 3.236601 -0.143354 0.000000
vn -0.0518 -0.9987 0.0000
vn 0.0518 0.9987 0.0000
vn -1.0000 0.0000 0.0000
vn -0.0806 -0.0000 0.9967
vn 0.0806 0.0000 -0.9967
vn 0.4977 0.0000 -0.8673
vn 0.0000 0.0000 1.0000
vn 0.4977 -0.0000 0.8673
vn 0.0000 -1.0000 0.0000
vn 0.0000 1.0000 0.0000
usemtl Material
s off
f 1//1 2//1 3//1 4//1
f 5//2 8//2 7//2 6//2
f 1//3 5//3 11//3 9//3
f 2//4 6//4 7//4 3//4
f 3//3 7//3 8//3 4//3
f 5//5 1//5 4//5 8//5
f 9//6 11//6 14//6 13//6
f 2//7 1//7 9//7 10//7
f 5//7 6//7 12//7 11//7
f 6//3 2//3 10//3 12//3
f 12//8 10//8 13//8 14//8
f 10//9 9//9 13//9
f 11//10 12//10 14//10
